<?xml version="1.0" standalone="no"?>
<svg viewBox="0 0 200 200" xmlns="http://www.w3.org/2000/svg">
  <path fill="#0F62FE" d="M25.8,-39.2C35.9,-33.7,48.2,-30.7,54.1,-23.1C59.9,-15.6,59.3,-3.6,59.3,9.8C59.3,23.1,60,37.8,51.4,40.5C42.8,43.2,25,34,13,31.9C1,29.8,-5.4,34.8,-18.9,41.3C-32.4,47.8,-53.1,55.9,-66.1,51.4C-79,46.9,-84.3,29.9,-85,13.3C-85.8,-3.4,-82.1,-19.6,-75.4,-34.4C-68.6,-49.3,-58.8,-62.7,-45.7,-66.9C-32.6,-71.1,-16.3,-66.1,-4.2,-59.5C7.9,-52.9,15.7,-44.8,25.8,-39.2Z" transform="translate(100 100)" />
</svg>
